<svg width="462" height="500" viewBox="0 0 462 500" fill="none" xmlns="http://www.w3.org/2000/svg">
<path d="M453.926 499.78H34.9258C32.9373 499.778 31.0309 498.987 29.6249 497.581C28.2188 496.175 27.428 494.269 27.4258 492.28V35.2803C27.428 33.2919 28.2188 31.3855 29.6249 29.9794C31.0309 28.5734 32.9373 27.7825 34.9258 27.7803H453.926C455.914 27.7825 457.821 28.5734 459.227 29.9794C460.633 31.3855 461.424 33.2919 461.426 35.2803V492.28C461.424 494.269 460.633 496.175 459.227 497.581C457.821 498.987 455.914 499.778 453.926 499.78ZM34.9258 30.7803C33.7327 30.7816 32.5889 31.2562 31.7452 32.0998C30.9016 32.9434 30.4271 34.0873 30.4258 35.2803V492.28C30.4271 493.473 30.9016 494.617 31.7452 495.461C32.5889 496.305 33.7327 496.779 34.9258 496.78H453.926C455.119 496.779 456.263 496.305 457.106 495.461C457.95 494.617 458.424 493.473 458.426 492.28V35.2803C458.424 34.0873 457.95 32.9434 457.106 32.0998C456.263 31.2562 455.119 30.7816 453.926 30.7803H34.9258Z" fill="#E6E6E6"/>
<path d="M121.388 198.126C126.824 198.126 131.231 193.719 131.231 188.283C131.231 182.847 126.824 178.44 121.388 178.44C115.952 178.44 111.545 182.847 111.545 188.283C111.545 193.719 115.952 198.126 121.388 198.126Z" fill="#E6E6E6"/>
<path d="M162.401 198.126C167.837 198.126 172.244 193.719 172.244 188.283C172.244 182.847 167.837 178.44 162.401 178.44C156.964 178.44 152.558 182.847 152.558 188.283C152.558 193.719 156.964 198.126 162.401 198.126Z" fill="#E6E6E6"/>
<path d="M203.413 198.126C208.849 198.126 213.256 193.719 213.256 188.283C213.256 182.847 208.849 178.44 203.413 178.44C197.977 178.44 193.57 182.847 193.57 188.283C193.57 193.719 197.977 198.126 203.413 198.126Z" fill="#00BBF0"/>
<path d="M244.426 198.126C249.862 198.126 254.269 193.719 254.269 188.283C254.269 182.847 249.862 178.44 244.426 178.44C238.99 178.44 234.583 182.847 234.583 188.283C234.583 193.719 238.99 198.126 244.426 198.126Z" fill="#00BBF0"/>
<path d="M285.438 198.126C290.875 198.126 295.281 193.719 295.281 188.283C295.281 182.847 290.875 178.44 285.438 178.44C280.002 178.44 275.595 182.847 275.595 188.283C275.595 193.719 280.002 198.126 285.438 198.126Z" fill="#00BBF0"/>
<path d="M326.451 198.126C331.887 198.126 336.294 193.719 336.294 188.283C336.294 182.847 331.887 178.44 326.451 178.44C321.015 178.44 316.608 182.847 316.608 188.283C316.608 193.719 321.015 198.126 326.451 198.126Z" fill="#E6E6E6"/>
<path d="M367.464 198.126C372.9 198.126 377.307 193.719 377.307 188.283C377.307 182.847 372.9 178.44 367.464 178.44C362.027 178.44 357.62 182.847 357.62 188.283C357.62 193.719 362.027 198.126 367.464 198.126Z" fill="#E6E6E6"/>
<path d="M121.388 229.296C126.824 229.296 131.231 224.889 131.231 219.453C131.231 214.017 126.824 209.61 121.388 209.61C115.952 209.61 111.545 214.017 111.545 219.453C111.545 224.889 115.952 229.296 121.388 229.296Z" fill="#E6E6E6"/>
<path d="M162.401 229.296C167.837 229.296 172.244 224.889 172.244 219.453C172.244 214.017 167.837 209.61 162.401 209.61C156.964 209.61 152.558 214.017 152.558 219.453C152.558 224.889 156.964 229.296 162.401 229.296Z" fill="#E6E6E6"/>
<path d="M203.413 229.296C208.849 229.296 213.256 224.889 213.256 219.453C213.256 214.017 208.849 209.61 203.413 209.61C197.977 209.61 193.57 214.017 193.57 219.453C193.57 224.889 197.977 229.296 203.413 229.296Z" fill="#E6E6E6"/>
<path d="M244.426 229.296C249.862 229.296 254.269 224.889 254.269 219.453C254.269 214.017 249.862 209.61 244.426 209.61C238.99 209.61 234.583 214.017 234.583 219.453C234.583 224.889 238.99 229.296 244.426 229.296Z" fill="#E6E6E6"/>
<path d="M285.438 229.296C290.875 229.296 295.281 224.889 295.281 219.453C295.281 214.017 290.875 209.61 285.438 209.61C280.002 209.61 275.595 214.017 275.595 219.453C275.595 224.889 280.002 229.296 285.438 229.296Z" fill="#E6E6E6"/>
<path d="M326.451 229.296C331.887 229.296 336.294 224.889 336.294 219.453C336.294 214.017 331.887 209.61 326.451 209.61C321.015 209.61 316.608 214.017 316.608 219.453C316.608 224.889 321.015 229.296 326.451 229.296Z" fill="#E6E6E6"/>
<path d="M367.464 229.296C372.9 229.296 377.307 224.889 377.307 219.453C377.307 214.017 372.9 209.61 367.464 209.61C362.027 209.61 357.62 214.017 357.62 219.453C357.62 224.889 362.027 229.296 367.464 229.296Z" fill="#E6E6E6"/>
<path d="M121.388 260.465C126.824 260.465 131.231 256.059 131.231 250.622C131.231 245.186 126.824 240.779 121.388 240.779C115.952 240.779 111.545 245.186 111.545 250.622C111.545 256.059 115.952 260.465 121.388 260.465Z" fill="#00BBF0"/>
<path d="M162.401 260.465C167.837 260.465 172.244 256.059 172.244 250.622C172.244 245.186 167.837 240.779 162.401 240.779C156.964 240.779 152.558 245.186 152.558 250.622C152.558 256.059 156.964 260.465 162.401 260.465Z" fill="#00BBF0"/>
<path d="M203.413 260.465C208.849 260.465 213.256 256.059 213.256 250.622C213.256 245.186 208.849 240.779 203.413 240.779C197.977 240.779 193.57 245.186 193.57 250.622C193.57 256.059 197.977 260.465 203.413 260.465Z" fill="#00BBF0"/>
<path d="M244.426 260.465C249.862 260.465 254.269 256.059 254.269 250.622C254.269 245.186 249.862 240.779 244.426 240.779C238.99 240.779 234.583 245.186 234.583 250.622C234.583 256.059 238.99 260.465 244.426 260.465Z" fill="#E6E6E6"/>
<path d="M285.438 260.465C290.875 260.465 295.281 256.059 295.281 250.622C295.281 245.186 290.875 240.779 285.438 240.779C280.002 240.779 275.595 245.186 275.595 250.622C275.595 256.059 280.002 260.465 285.438 260.465Z" fill="#E6E6E6"/>
<path d="M326.451 260.465C331.887 260.465 336.294 256.059 336.294 250.622C336.294 245.186 331.887 240.779 326.451 240.779C321.015 240.779 316.608 245.186 316.608 250.622C316.608 256.059 321.015 260.465 326.451 260.465Z" fill="#E6E6E6"/>
<path d="M367.464 260.465C372.9 260.465 377.307 256.059 377.307 250.622C377.307 245.186 372.9 240.779 367.464 240.779C362.027 240.779 357.62 245.186 357.62 250.622C357.62 256.059 362.027 260.465 367.464 260.465Z" fill="#E6E6E6"/>
<path d="M121.388 291.635C126.824 291.635 131.231 287.228 131.231 281.792C131.231 276.356 126.824 271.949 121.388 271.949C115.952 271.949 111.545 276.356 111.545 281.792C111.545 287.228 115.952 291.635 121.388 291.635Z" fill="#E6E6E6"/>
<path d="M162.401 291.635C167.837 291.635 172.244 287.228 172.244 281.792C172.244 276.356 167.837 271.949 162.401 271.949C156.964 271.949 152.558 276.356 152.558 281.792C152.558 287.228 156.964 291.635 162.401 291.635Z" fill="#E6E6E6"/>
<path d="M121.388 322.805C126.824 322.805 131.231 318.398 131.231 312.962C131.231 307.525 126.824 303.119 121.388 303.119C115.952 303.119 111.545 307.525 111.545 312.962C111.545 318.398 115.952 322.805 121.388 322.805Z" fill="#E6E6E6"/>
<path d="M162.401 322.805C167.837 322.805 172.244 318.398 172.244 312.962C172.244 307.525 167.837 303.119 162.401 303.119C156.964 303.119 152.558 307.525 152.558 312.962C152.558 318.398 156.964 322.805 162.401 322.805Z" fill="#E6E6E6"/>
<path d="M203.413 322.805C208.849 322.805 213.256 318.398 213.256 312.962C213.256 307.525 208.849 303.119 203.413 303.119C197.977 303.119 193.57 307.525 193.57 312.962C193.57 318.398 197.977 322.805 203.413 322.805Z" fill="#E6E6E6"/>
<path d="M203.413 291.635C208.849 291.635 213.256 287.228 213.256 281.792C213.256 276.356 208.849 271.949 203.413 271.949C197.977 271.949 193.57 276.356 193.57 281.792C193.57 287.228 197.977 291.635 203.413 291.635Z" fill="#E6E6E6"/>
<path d="M244.426 291.635C249.862 291.635 254.269 287.228 254.269 281.792C254.269 276.356 249.862 271.949 244.426 271.949C238.99 271.949 234.583 276.356 234.583 281.792C234.583 287.228 238.99 291.635 244.426 291.635Z" fill="#00BBF0"/>
<path d="M285.438 291.635C290.875 291.635 295.281 287.228 295.281 281.792C295.281 276.356 290.875 271.949 285.438 271.949C280.002 271.949 275.595 276.356 275.595 281.792C275.595 287.228 280.002 291.635 285.438 291.635Z" fill="#00BBF0"/>
<path d="M326.451 291.635C331.887 291.635 336.294 287.228 336.294 281.792C336.294 276.356 331.887 271.949 326.451 271.949C321.015 271.949 316.608 276.356 316.608 281.792C316.608 287.228 321.015 291.635 326.451 291.635Z" fill="#00BBF0"/>
<path d="M367.464 291.635C372.9 291.635 377.307 287.228 377.307 281.792C377.307 276.356 372.9 271.949 367.464 271.949C362.027 271.949 357.62 276.356 357.62 281.792C357.62 287.228 362.027 291.635 367.464 291.635Z" fill="#E6E6E6"/>
<path d="M169.914 101.279C168.354 101.304 166.867 101.942 165.773 103.054C164.679 104.167 164.065 105.664 164.065 107.225C164.065 108.785 164.679 110.283 165.773 111.395C166.867 112.507 168.354 113.145 169.914 113.171H319C319.782 113.184 320.558 113.044 321.285 112.757C322.012 112.471 322.676 112.044 323.237 111.501C323.799 110.957 324.249 110.309 324.56 109.592C324.871 108.875 325.038 108.104 325.05 107.322C325.063 106.541 324.922 105.765 324.634 105.038C324.347 104.311 323.919 103.648 323.376 103.087C322.832 102.526 322.183 102.077 321.465 101.767C320.748 101.456 319.977 101.291 319.195 101.279C319.13 101.278 319.065 101.278 319 101.279H169.914Z" fill="#3F3D56"/>
<path d="M352.809 99.623C352.7 99.7317 352.614 99.8607 352.556 100.003C352.497 100.145 352.466 100.297 352.466 100.45C352.466 100.604 352.497 100.756 352.556 100.898C352.614 101.04 352.7 101.169 352.809 101.278L357.832 106.301H345.446C345.136 106.301 344.838 106.424 344.619 106.643C344.399 106.863 344.276 107.16 344.276 107.471C344.276 107.781 344.399 108.079 344.619 108.298C344.838 108.517 345.136 108.641 345.446 108.641H357.832L352.809 113.664C352.7 113.772 352.614 113.901 352.556 114.043C352.497 114.185 352.466 114.337 352.466 114.491C352.466 114.645 352.497 114.797 352.556 114.939C352.614 115.081 352.7 115.21 352.809 115.318C352.918 115.427 353.047 115.513 353.189 115.572C353.331 115.631 353.483 115.661 353.636 115.661C353.79 115.661 353.942 115.631 354.084 115.572C354.226 115.513 354.355 115.427 354.464 115.318L361.484 108.298C361.704 108.079 361.827 107.781 361.827 107.471C361.827 107.16 361.704 106.863 361.484 106.643L354.464 99.623C354.355 99.5144 354.226 99.4282 354.084 99.3694C353.942 99.3106 353.79 99.2803 353.637 99.2803C353.483 99.2803 353.331 99.3106 353.189 99.3694C353.047 99.4282 352.918 99.5144 352.809 99.623Z" fill="#E6E6E6"/>
<path d="M136.042 99.623C136.151 99.7317 136.237 99.8607 136.296 100.003C136.355 100.145 136.385 100.297 136.385 100.45C136.385 100.604 136.355 100.756 136.296 100.898C136.237 101.04 136.151 101.169 136.042 101.278L131.02 106.301H143.405C143.716 106.301 144.013 106.424 144.233 106.643C144.452 106.863 144.575 107.16 144.575 107.471C144.575 107.781 144.452 108.079 144.233 108.298C144.013 108.517 143.716 108.641 143.405 108.641H131.02L136.042 113.664C136.262 113.883 136.385 114.181 136.385 114.491C136.385 114.801 136.262 115.099 136.042 115.318C135.823 115.538 135.525 115.661 135.215 115.661C134.905 115.661 134.607 115.538 134.388 115.318L127.367 108.298C127.148 108.079 127.025 107.781 127.025 107.471C127.025 107.16 127.148 106.863 127.367 106.643L134.388 99.623C134.496 99.5144 134.625 99.4282 134.767 99.3694C134.909 99.3106 135.061 99.2803 135.215 99.2803C135.369 99.2803 135.521 99.3106 135.663 99.3694C135.805 99.4282 135.934 99.5144 136.042 99.623V99.623Z" fill="#E6E6E6"/>
<path d="M161.58 385.627C158.778 385.625 156.004 386.176 153.414 387.246C150.825 388.317 148.473 389.888 146.491 391.869C144.509 393.849 142.937 396.201 141.864 398.789C140.791 401.378 140.239 404.152 140.239 406.954C140.239 409.756 140.791 412.53 141.864 415.118C142.937 417.707 144.509 420.059 146.491 422.039C148.473 424.02 150.825 425.59 153.414 426.661C156.004 427.732 158.778 428.282 161.58 428.28H327.271C330.073 428.282 332.848 427.732 335.437 426.661C338.026 425.59 340.379 424.02 342.361 422.039C344.343 420.059 345.915 417.707 346.988 415.118C348.06 412.53 348.612 409.756 348.612 406.954C348.612 404.152 348.06 401.378 346.988 398.789C345.915 396.201 344.343 393.849 342.361 391.869C340.379 389.888 338.026 388.317 335.437 387.246C332.848 386.176 330.073 385.625 327.271 385.627H161.58Z" fill="#E6E6E6"/>
<path d="M34.2725 68.545C27.494 68.545 20.8678 66.5349 15.2317 62.769C9.59564 59.0031 5.20286 53.6505 2.60885 47.388C0.0148504 41.1255 -0.66386 34.2345 0.658551 27.5863C1.98096 20.938 5.2451 14.8313 10.0382 10.0382C14.8313 5.2451 20.938 1.98096 27.5863 0.658553C34.2345 -0.663858 41.1255 0.0148447 47.388 2.60885C53.6505 5.20285 59.0031 9.59565 62.769 15.2317C66.5349 20.8678 68.545 27.494 68.545 34.2725C68.5347 43.359 64.9206 52.0704 58.4954 58.4955C52.0703 64.9206 43.359 68.5347 34.2725 68.545V68.545Z" fill="#00BBF0"/>
<path d="M47.7955 30.8918H37.6533V20.7495C37.6533 19.8528 37.2971 18.9929 36.6631 18.3589C36.0291 17.7248 35.1691 17.3687 34.2725 17.3687C33.3758 17.3687 32.5159 17.7248 31.8819 18.3589C31.2479 18.9929 30.8917 19.8528 30.8917 20.7495V30.8918H20.7493C19.8527 30.8918 18.9928 31.248 18.3588 31.882C17.7248 32.516 17.3686 33.3759 17.3686 34.2726C17.3686 35.1692 17.7248 36.0291 18.3588 36.6631C18.9928 37.2971 19.8527 37.6533 20.7493 37.6533H30.8917V47.7956C30.8917 48.6923 31.2479 49.5522 31.8819 50.1862C32.5159 50.8203 33.3758 51.1765 34.2725 51.1765C35.1691 51.1765 36.0291 50.8203 36.6631 50.1862C37.2971 49.5522 37.6533 48.6923 37.6533 47.7956V37.6533H47.7955C48.6921 37.6533 49.552 37.2971 50.186 36.6631C50.8201 36.0291 51.1762 35.1692 51.1762 34.2726C51.1762 33.3759 50.8201 32.516 50.186 31.882C49.552 31.248 48.6921 30.8918 47.7955 30.8918Z" fill="#E6E6E6"/>
</svg>
