<svg width="98" height="112" viewBox="0 0 98 112" fill="none" xmlns="http://www.w3.org/2000/svg">
<path d="M0.111115 36V102.562C0.111115 107.53 4.09111 111.556 9 111.556H89C93.9089 111.556 97.8889 107.53 97.8889 102.562V36H0.111115ZM24.5556 104.889H6.77778V87.1111H24.5556V104.889ZM24.5556 82.6667H6.77778V64.8889H24.5556V82.6667ZM24.5556 60.4445H6.77778V42.6667H24.5556V60.4445ZM46.7778 104.889H29V87.1111H46.7778V104.889ZM46.7778 82.6667H29V64.8889H46.7778V82.6667ZM46.7778 60.4445H29V42.6667H46.7778V60.4445ZM69 104.889H51.2222V87.1111H69V104.889ZM69 82.6667H51.2222V64.8889H69V82.6667ZM69 60.4445H51.2222V42.6667H69V60.4445ZM91.2222 104.889H73.4445V87.1111H91.2222V104.889ZM91.2222 82.6667H73.4445V64.8889H91.2222V82.6667ZM91.2222 60.4445H73.4445V42.6667H91.2222V60.4445ZM89 13.7778H74.5556V3.77779C74.5556 2.89374 74.2044 2.04589 73.5793 1.42077C72.9541 0.795647 72.1063 0.444458 71.2222 0.444458C70.3382 0.444458 69.4903 0.795647 68.8652 1.42077C68.2401 2.04589 67.8889 2.89374 67.8889 3.77779V13.7778H30.1111V3.77779C30.1111 2.89374 29.7599 2.04589 29.1348 1.42077C28.5097 0.795647 27.6618 0.444458 26.7778 0.444458C25.8937 0.444458 25.0459 0.795647 24.4208 1.42077C23.7956 2.04589 23.4444 2.89374 23.4444 3.77779V13.7778H9C4.09111 13.7778 0.111115 17.8033 0.111115 22.77V31.5556H97.8889V22.77C97.8889 17.8033 93.9089 13.7778 89 13.7778ZM26.7778 29.3333C25.0097 29.3333 23.314 28.631 22.0637 27.3807C20.8135 26.1305 20.1111 24.4348 20.1111 22.6667C20.1116 21.4975 20.42 20.349 21.0051 19.3367C21.5902 18.3244 22.4315 17.484 23.4444 16.9V22.6667C23.4444 23.5507 23.7956 24.3986 24.4208 25.0237C25.0459 25.6488 25.8937 26 26.7778 26C27.6618 26 28.5097 25.6488 29.1348 25.0237C29.7599 24.3986 30.1111 23.5507 30.1111 22.6667V16.8989C31.1243 17.4829 31.9657 18.3235 32.5509 19.336C33.136 20.3485 33.4442 21.4972 33.4444 22.6667C33.4444 24.4348 32.7421 26.1305 31.4918 27.3807C30.2416 28.631 28.5459 29.3333 26.7778 29.3333ZM71.2222 29.3333C69.4541 29.3333 67.7584 28.631 66.5082 27.3807C65.2579 26.1305 64.5556 24.4348 64.5556 22.6667C64.5561 21.4975 64.8644 20.349 65.4495 19.3367C66.0347 18.3244 66.876 17.484 67.8889 16.9V22.6667C67.8889 23.5507 68.2401 24.3986 68.8652 25.0237C69.4903 25.6488 70.3382 26 71.2222 26C72.1063 26 72.9541 25.6488 73.5793 25.0237C74.2044 24.3986 74.5556 23.5507 74.5556 22.6667V16.8989C75.5687 17.4829 76.4102 18.3235 76.9953 19.336C77.5805 20.3485 77.8887 21.4972 77.8889 22.6667C77.8889 24.4348 77.1865 26.1305 75.9363 27.3807C74.686 28.631 72.9903 29.3333 71.2222 29.3333Z" fill="url(#paint0_linear)"/>
<defs>
<linearGradient id="paint0_linear" x1="0.111115" y1="0.444458" x2="88.7279" y2="41.7671" gradientUnits="userSpaceOnUse">
<stop stop-color="#0D7CE9"/>
<stop offset="1" stop-color="#15CFF1"/>
</linearGradient>
</defs>
</svg>
