<svg width="220" height="54" viewBox="0 0 220 54" fill="none" xmlns="http://www.w3.org/2000/svg">
<path d="M60.1921 21.7307C62.6774 23.7661 66.2768 25.0944 69.7905 25.0944C74.4611 25.0944 78.189 22.8662 78.189 18.6669C78.189 11.0826 67.0909 13.1608 67.0909 9.51854C67.0909 8.51158 68.0122 7.99738 69.4048 7.99738C71.0974 7.99738 73.904 8.89722 76.1108 10.1827L78.1247 6.00487C75.9608 4.61226 72.8756 3.66956 69.8547 3.66956C64.7985 3.66956 61.4776 6.13342 61.4776 10.0113C61.4776 17.4457 72.5757 15.2176 72.5757 18.9455C72.5757 20.1453 71.5259 20.7666 69.8547 20.7666C67.648 20.7666 64.4128 19.5025 62.2489 17.6171L60.1921 21.7307ZM79.7102 16.8673C79.7102 21.795 83.0739 25.0944 88.0444 25.0944C91.4724 25.0944 94.0862 23.7018 95.3931 21.3451L91.6224 19.1169C90.9368 20.3595 89.8013 20.9594 88.3229 20.9594C86.309 20.9594 84.9378 19.3311 84.9378 16.8458C84.9378 14.4034 86.309 12.7537 88.3229 12.7537C89.737 12.7537 90.8511 13.3964 91.6009 14.4463L95.3074 12.1966C93.8934 9.88277 91.3224 8.55443 88.1087 8.55443C83.0953 8.55443 79.7102 11.8967 79.7102 16.8673ZM98.0712 24.9016H103.256V16.9315C103.256 14.7034 104.52 13.0965 106.555 13.0965C108.334 13.0965 109.405 14.2534 109.405 16.1602V24.9016H114.59V14.7034C114.59 10.9326 112.254 8.51158 108.698 8.51158C106.298 8.533 104.392 9.49712 103.256 11.4039V2.6626H98.0712V24.9016ZM116.904 16.8673C116.904 21.795 120.203 25.0944 125.495 25.0944C128.452 25.0944 130.894 24.0446 132.544 22.2449L129.801 19.5668C128.73 20.6595 127.338 21.2165 125.945 21.2165C124.017 21.2165 122.646 20.1453 122.131 18.217H133.486C133.851 12.3038 131.044 8.55443 125.345 8.55443C120.332 8.55443 116.904 11.8539 116.904 16.8673ZM122.046 15.4318C122.367 13.4821 123.588 12.1538 125.388 12.1538C127.252 12.1538 128.516 13.4607 128.516 15.4318H122.046ZM134.986 16.7601C134.986 21.7521 137.986 25.1158 142.549 25.1158C144.627 25.1158 146.277 24.2803 147.413 22.7805V24.9016H152.597V2.6626H147.413V10.8683C146.277 9.36857 144.563 8.533 142.442 8.533C137.964 8.533 134.986 11.811 134.986 16.7601ZM140.192 16.8673C140.214 14.382 141.649 12.668 143.813 12.668C145.977 12.668 147.413 14.382 147.413 16.8673C147.413 19.3525 145.977 21.1094 143.813 21.1094C141.649 21.1094 140.214 19.3525 140.192 16.8673ZM156.411 18.9455C156.411 22.7162 158.682 25.1158 162.196 25.1158C164.531 25.1158 166.331 24.1517 167.445 22.2449V24.9016H172.63V8.74725H167.445V16.7173C167.445 18.9026 166.288 20.5309 164.295 20.5523C162.646 20.5523 161.596 19.3954 161.596 17.4672V8.74725H156.411V18.9455ZM176.936 24.9016H182.121V2.6626H176.936V24.9016ZM185.056 16.8673C185.056 21.795 188.355 25.0944 193.626 25.0944C196.604 25.0944 199.025 24.0446 200.675 22.2449L197.954 19.5668C196.883 20.6595 195.49 21.2165 194.076 21.2165C192.169 21.2165 190.777 20.1453 190.284 18.217H201.639C202.003 12.3038 199.175 8.55443 193.476 8.55443C188.484 8.55443 185.056 11.8539 185.056 16.8673ZM190.177 15.4318C190.519 13.4821 191.741 12.1538 193.54 12.1538C195.404 12.1538 196.668 13.4607 196.668 15.4318H190.177ZM202.025 8.74725L208.752 24.5588L208.366 25.3515C207.938 26.2299 207.274 26.6584 206.352 26.6584C205.602 26.6584 204.981 26.3799 204.231 25.78L202.067 29.3151C203.503 30.4292 204.981 30.9648 206.781 30.9648C209.78 30.9648 211.816 29.5293 213.015 26.5941L220 8.74725H214.837L211.323 19.4811L207.381 8.74725H202.025Z" fill="#0B214A"/>
<path d="M0 17.1608V49.2868C0 51.6845 1.92094 53.6274 4.2902 53.6274H42.902C45.2712 53.6274 47.1922 51.6845 47.1922 49.2868V17.1608H0ZM11.798 50.4098H3.21765V41.8294H11.798V50.4098ZM11.798 39.6843H3.21765V31.1039H11.798V39.6843ZM11.798 28.9588H3.21765V20.3784H11.798V28.9588ZM22.5235 50.4098H13.9431V41.8294H22.5235V50.4098ZM22.5235 39.6843H13.9431V31.1039H22.5235V39.6843ZM22.5235 28.9588H13.9431V20.3784H22.5235V28.9588ZM33.249 50.4098H24.6686V41.8294H33.249V50.4098ZM33.249 39.6843H24.6686V31.1039H33.249V39.6843ZM33.249 28.9588H24.6686V20.3784H33.249V28.9588ZM43.9745 50.4098H35.3941V41.8294H43.9745V50.4098ZM43.9745 39.6843H35.3941V31.1039H43.9745V39.6843ZM43.9745 28.9588H35.3941V20.3784H43.9745V28.9588ZM42.902 6.43529H35.9304V1.60882C35.9304 1.18214 35.7609 0.772926 35.4592 0.471213C35.1575 0.169501 34.7483 0 34.3216 0C33.8949 0 33.4857 0.169501 33.184 0.471213C32.8822 0.772926 32.7127 1.18214 32.7127 1.60882V6.43529H14.4794V1.60882C14.4794 1.18214 14.3099 0.772926 14.0082 0.471213C13.7065 0.169501 13.2973 0 12.8706 0C12.4439 0 12.0347 0.169501 11.733 0.471213C11.4313 0.772926 11.2618 1.18214 11.2618 1.60882V6.43529H4.2902C1.92094 6.43529 0 8.37822 0 10.7754V15.0157H47.1922V10.7754C47.1922 8.37822 45.2712 6.43529 42.902 6.43529ZM12.8706 13.9431C12.0172 13.9431 11.1988 13.6041 10.5954 13.0007C9.99194 12.3973 9.65294 11.5789 9.65294 10.7255C9.65319 10.1612 9.80201 9.60686 10.0844 9.11829C10.3668 8.62972 10.7729 8.2241 11.2618 7.94223V10.7255C11.2618 11.1522 11.4313 11.5614 11.733 11.8631C12.0347 12.1648 12.4439 12.3343 12.8706 12.3343C13.2973 12.3343 13.7065 12.1648 14.0082 11.8631C14.3099 11.5614 14.4794 11.1522 14.4794 10.7255V7.94169C14.9684 8.22357 15.3745 8.62926 15.657 9.11794C15.9394 9.60663 16.0881 10.1611 16.0882 10.7255C16.0882 11.5789 15.7492 12.3973 15.1458 13.0007C14.5424 13.6041 13.724 13.9431 12.8706 13.9431ZM34.3216 13.9431C33.4682 13.9431 32.6498 13.6041 32.0463 13.0007C31.4429 12.3973 31.1039 11.5789 31.1039 10.7255C31.1042 10.1612 31.253 9.60686 31.5354 9.11829C31.8178 8.62972 32.2239 8.2241 32.7127 7.94223V10.7255C32.7127 11.1522 32.8822 11.5614 33.184 11.8631C33.4857 12.1648 33.8949 12.3343 34.3216 12.3343C34.7483 12.3343 35.1575 12.1648 35.4592 11.8631C35.7609 11.5614 35.9304 11.1522 35.9304 10.7255V7.94169C36.4194 8.22357 36.8255 8.62926 37.1079 9.11794C37.3904 9.60663 37.5391 10.1611 37.5392 10.7255C37.5392 11.5789 37.2002 12.3973 36.5968 13.0007C35.9934 13.6041 35.1749 13.9431 34.3216 13.9431Z" fill="url(#paint0_linear)"/>
<path d="M60.1921 44.2431C60.6432 44.6125 61.2965 44.8536 61.9343 44.8536C62.782 44.8536 63.4587 44.4492 63.4587 43.687C63.4587 42.3103 61.4443 42.6876 61.4443 42.0265C61.4443 41.8437 61.6115 41.7504 61.8643 41.7504C62.1715 41.7504 62.6809 41.9137 63.0815 42.147L63.447 41.3887C63.0543 41.1359 62.4943 40.9648 61.946 40.9648C61.0282 40.9648 60.4255 41.412 60.4255 42.1159C60.4255 43.4653 62.4398 43.0609 62.4398 43.7375C62.4398 43.9553 62.2493 44.0681 61.946 44.0681C61.5454 44.0681 60.9582 43.8386 60.5655 43.4964L60.1921 44.2431ZM63.6415 41.7893H64.7809V44.8186H65.7492V41.7893H66.9002V41.0037H63.6415V41.7893ZM66.9041 44.8186H67.8996L68.1796 44.1186H69.844L70.1162 44.8186H71.1506L69.5446 41.0076H68.549L66.9041 44.8186ZM68.4596 43.3836L69.0157 41.972L69.5601 43.3836H68.4596ZM71.0962 41.0076L72.5078 43.617V44.8186H73.4683V43.5897L74.8527 41.0076H73.8844L72.9861 42.6681L72.0645 41.0076H71.0962ZM76.4704 44.8186H77.4387V43.7492H78.1309C79.1031 43.7492 79.667 43.232 79.667 42.3376C79.667 41.4898 79.1031 41.0076 78.1309 41.0076H76.4704V44.8186ZM77.4387 42.987V41.7698H78.0804C78.5042 41.7698 78.7492 41.972 78.7492 42.3687C78.7492 42.7731 78.5042 42.987 78.0804 42.987H77.4387ZM80.1725 44.8186H81.1408V43.7492H81.8758H81.903L82.4707 44.8186H83.5674L82.7702 43.5625C83.2135 43.3409 83.4585 42.9209 83.4585 42.3376C83.4585 41.4898 82.8829 41.0076 81.8758 41.0076H80.1725V44.8186ZM81.1408 42.987V41.7698H81.8758C82.2957 41.7698 82.5407 41.972 82.5407 42.3687C82.5407 42.7731 82.2957 42.987 81.8758 42.987H81.1408ZM83.8629 42.9092C83.8629 44.0253 84.7457 44.8653 85.9201 44.8653C87.1022 44.8653 87.985 44.0214 87.985 42.9092C87.985 41.8048 87.1022 40.9765 85.9201 40.9765C84.7457 40.9765 83.8629 41.797 83.8629 42.9092ZM84.8545 42.9131C84.8545 42.2715 85.3445 41.7893 85.9317 41.7893C86.5189 41.7893 86.9895 42.2715 86.9895 42.9131C86.9895 43.5586 86.5189 44.0525 85.9317 44.0525C85.3484 44.0525 84.8545 43.5586 84.8545 42.9131ZM88.4944 44.8186H90.0966C91.3215 44.8186 92.1615 44.0408 92.1615 42.9131C92.1615 41.7815 91.3332 41.0076 90.1355 41.0076H88.4944V44.8186ZM89.4666 44.0486V41.7815H90.1121C90.7265 41.7815 91.1737 42.2442 91.1737 42.9209C91.1737 43.5897 90.7499 44.0486 90.1549 44.0486H89.4666ZM92.6048 43.2203C92.6048 44.2275 93.2931 44.8653 94.3664 44.8653C95.4319 44.8653 96.1008 44.2275 96.1008 43.2203V41.0076H95.1364V43.2203C95.1364 43.7375 94.8292 44.0525 94.3703 44.0525C93.9075 44.0525 93.577 43.7375 93.577 43.2203V41.0076H92.6048V43.2203ZM96.548 42.9053C96.548 44.0214 97.4035 44.8653 98.5507 44.8653C99.1107 44.8653 99.7173 44.5853 100.126 44.1653L99.5579 43.5664C99.2934 43.8386 98.9201 44.0136 98.6012 44.0136C97.9946 44.0136 97.5396 43.5314 97.5396 42.8937C97.5396 42.2676 97.9946 41.7893 98.6012 41.7893C98.9396 41.7893 99.309 41.9798 99.5579 42.2831L100.118 41.6182C99.7368 41.2254 99.1496 40.9765 98.5857 40.9765C97.423 40.9765 96.548 41.8048 96.548 42.9053ZM100.223 41.7893H101.362V44.8186H102.331V41.7893H103.478V41.0037H100.223V41.7893ZM103.894 44.8186H104.862V41.0076H103.894V44.8186ZM105.235 41.0076L106.717 44.8186H107.72L109.218 41.0076H108.222L107.246 43.8114L106.27 41.0076H105.235ZM109.591 44.8186H112.636V44.0564H110.563V43.2903H112.379V42.5281H110.563V41.7698H112.577V41.0076H109.591V44.8186ZM114.526 44.8186H116.392C117.291 44.8186 117.858 44.4103 117.858 43.7647C117.858 43.267 117.551 42.8937 117.073 42.8003C117.477 42.6876 117.726 42.3648 117.726 41.9604C117.726 41.3809 117.182 41.0076 116.326 41.0076H114.526V44.8186ZM115.49 44.0758V43.232H116.272C116.633 43.232 116.855 43.3875 116.855 43.6442C116.855 43.9164 116.633 44.0758 116.272 44.0758H115.49ZM115.49 42.532V41.7504H116.272C116.556 41.7504 116.734 41.8904 116.734 42.1354C116.734 42.3803 116.556 42.532 116.272 42.532H115.49ZM118.01 41.0076L119.418 43.617V44.8186H120.382V43.5897L121.766 41.0076H120.798L119.9 42.6681L118.978 41.0076H118.01ZM123.384 44.8186H124.352V43.3409H125.931V44.8186H126.9V41.0076H125.931V42.5787H124.352V41.0076H123.384V44.8186ZM127.253 44.8186H128.249L128.529 44.1186H130.193L130.466 44.8186H131.5L129.894 41.0076H128.898L127.253 44.8186ZM128.809 43.3836L129.365 41.972L129.909 43.3836H128.809ZM131.469 41.0076L132.947 44.8186H133.95L135.447 41.0076H134.452L133.475 43.8114L132.503 41.0076H131.469ZM135.824 44.8186H136.793V41.0076H135.824V44.8186ZM137.555 44.8186H138.465V42.4737L140.215 44.8186H141.07V41.0076H140.168V43.3603L138.41 41.0076H137.555V44.8186ZM141.583 42.9131C141.583 44.0253 142.458 44.8653 143.617 44.8653C144.154 44.8653 144.796 44.6553 145.204 44.3675V42.882H144.364V43.8658C144.135 43.9825 143.886 44.0525 143.691 44.0525C143.057 44.0525 142.575 43.5625 142.575 42.9131C142.575 42.2792 143.053 41.7893 143.68 41.7893C144.033 41.7893 144.418 41.9448 144.698 42.2015L145.243 41.5443C144.85 41.1943 144.251 40.9765 143.683 40.9765C142.482 40.9765 141.583 41.8087 141.583 42.9131ZM146.892 42.9131C146.892 44.0253 147.767 44.8653 148.925 44.8653C149.462 44.8653 150.104 44.6553 150.512 44.3675V42.882H149.672V43.8658C149.443 43.9825 149.194 44.0525 148.999 44.0525C148.365 44.0525 147.883 43.5625 147.883 42.9131C147.883 42.2792 148.362 41.7893 148.988 41.7893C149.342 41.7893 149.727 41.9448 150.007 42.2015L150.551 41.5443C150.158 41.1943 149.559 40.9765 148.992 40.9765C147.79 40.9765 146.892 41.8087 146.892 42.9131ZM151.185 44.8186H152.157V43.7492H152.892H152.919L153.483 44.8186H154.584L153.782 43.5625C154.23 43.3409 154.475 42.9209 154.475 42.3376C154.475 41.4898 153.899 41.0076 152.892 41.0076H151.185V44.8186ZM152.157 42.987V41.7698H152.892C153.308 41.7698 153.553 41.972 153.553 42.3687C153.553 42.7731 153.308 42.987 152.892 42.987H152.157ZM155.128 44.8186H158.173V44.0564H156.096V43.2903H157.916V42.5281H156.096V41.7698H158.111V41.0076H155.128V44.8186ZM158.391 44.8186H159.386L159.662 44.1186H161.331L161.603 44.8186H162.637L161.031 41.0076H160.032L158.391 44.8186ZM159.946 43.3836L160.502 41.972L161.047 43.3836H159.946ZM162.645 41.7893H163.784V44.8186H164.753V41.7893H165.904V41.0037H162.645V41.7893ZM167.238 41.7893H168.373V44.8186H169.341V41.7893H170.492V41.0037H167.238V41.7893ZM170.905 44.8186H171.873V41.0076H170.905V44.8186ZM172.635 44.8186H173.502V42.3415L174.416 44.4375H175.05L175.964 42.3415L175.968 44.8186H176.823V41.0037H175.766L174.731 43.2748L173.697 41.0037H172.635V44.8186ZM177.589 44.8186H180.634V44.0564H178.562V43.2903H180.378V42.5281H178.562V41.7698H180.576V41.0076H177.589V44.8186ZM182.524 44.8186H183.387V42.3415L184.305 44.4375H184.935L185.849 42.3415L185.857 44.8186H186.708V41.0037H185.655L184.62 43.2748L183.586 41.0037H182.524V44.8186ZM187.07 44.8186H188.066L188.342 44.1186H190.01L190.282 44.8186H191.317L189.711 41.0076H188.715L187.07 44.8186ZM188.626 43.3836L189.182 41.972L189.726 43.3836H188.626ZM191.67 44.8186H192.58V42.4737L194.33 44.8186H195.186V41.0076H194.284V43.3603L192.526 41.0076H191.67V44.8186ZM195.54 44.8186H196.535L196.815 44.1186H198.48L198.752 44.8186H199.786L198.18 41.0076H197.185L195.54 44.8186ZM197.099 43.3836L197.651 41.972L198.196 43.3836H197.099ZM199.891 42.9131C199.891 44.0253 200.766 44.8653 201.925 44.8653C202.462 44.8653 203.103 44.6553 203.512 44.3675V42.882H202.672V43.8658C202.442 43.9825 202.193 44.0525 201.999 44.0525C201.365 44.0525 200.883 43.5625 200.883 42.9131C200.883 42.2792 201.361 41.7893 201.987 41.7893C202.341 41.7893 202.726 41.9448 203.006 42.2015L203.551 41.5443C203.158 41.1943 202.559 40.9765 201.991 40.9765C200.79 40.9765 199.891 41.8087 199.891 42.9131ZM204.184 44.8186H205.052V42.3415L205.966 44.4375H206.599L207.513 42.3415L207.517 44.8186H208.373V41.0037H207.315L206.281 43.2748L205.246 41.0037H204.184V44.8186ZM209.139 44.8186H212.184V44.0564H210.111V43.2903H211.927V42.5281H210.111V41.7698H212.125V41.0076H209.139V44.8186ZM212.81 44.8186H213.72V42.4737L215.473 44.8186H216.325V41.0076H215.423V43.3603L213.665 41.0076H212.81V44.8186ZM216.745 41.7893H217.885V44.8186H218.853V41.7893H220V41.0037H216.745V41.7893Z" fill="#0B214A"/>
<defs>
<linearGradient id="paint0_linear" x1="0" y1="0" x2="42.7706" y2="19.9443" gradientUnits="userSpaceOnUse">
<stop stop-color="#0D7CE9"/>
<stop offset="1" stop-color="#15CFF1"/>
</linearGradient>
</defs>
</svg>
