<svg data-v-fde0c5aa="" xmlns="http://www.w3.org/2000/svg" viewBox="0 0 300 300" class="iconLeftSlogan"><!----><defs data-v-fde0c5aa=""><!----></defs><rect data-v-fde0c5aa="" fill="transparent" x="0" y="0" width="300px" height="300px" class="logo-background-square"></rect><defs data-v-fde0c5aa=""><!----></defs><g data-v-fde0c5aa="" id="86349dfe-312e-4f2e-b171-3dcd51b5b249" fill="#000000" transform="matrix(2.1424834081007944,0,0,2.1424834081007944,99.67795805154262,117.92170833649512)"><path d="M0.24 12.60C1.40 13.55 3.08 14.17 4.72 14.17C6.90 14.17 8.64 13.13 8.64 11.17C8.64 7.63 3.46 8.60 3.46 6.90C3.46 6.43 3.89 6.19 4.54 6.19C5.33 6.19 6.64 6.61 7.67 7.21L8.61 5.26C7.60 4.61 6.16 4.17 4.75 4.17C2.39 4.17 0.84 5.32 0.84 7.13C0.84 10.60 6.02 9.56 6.02 11.30C6.02 11.86 5.53 12.15 4.75 12.15C3.72 12.15 2.21 11.56 1.20 10.68ZM9.35 10.33C9.35 12.63 10.92 14.17 13.24 14.17C14.84 14.17 16.06 13.52 16.67 12.42L14.91 11.38C14.59 11.96 14.06 12.24 13.37 12.24C12.43 12.24 11.79 11.48 11.79 10.32C11.79 9.18 12.43 8.41 13.37 8.41C14.03 8.41 14.55 8.71 14.90 9.20L16.63 8.15C15.97 7.07 14.77 6.45 13.27 6.45C10.93 6.45 9.35 8.01 9.35 10.33ZM17.92 14.08L20.34 14.08L20.34 10.36C20.34 9.32 20.93 8.57 21.88 8.57C22.71 8.57 23.21 9.11 23.21 10.00L23.21 14.08L25.63 14.08L25.63 9.32C25.63 7.56 24.54 6.43 22.88 6.43C21.76 6.44 20.87 6.89 20.34 7.78L20.34 3.70L17.92 3.70ZM26.71 10.33C26.71 12.63 28.25 14.17 30.72 14.17C32.10 14.17 33.24 13.68 34.01 12.84L32.73 11.59C32.23 12.10 31.58 12.36 30.93 12.36C30.03 12.36 29.39 11.86 29.15 10.96L34.45 10.96C34.62 8.20 33.31 6.45 30.65 6.45C28.31 6.45 26.71 7.99 26.71 10.33ZM29.11 9.66C29.26 8.75 29.83 8.13 30.67 8.13C31.54 8.13 32.13 8.74 32.13 9.66ZM35.15 10.28C35.15 12.61 36.55 14.18 38.68 14.18C39.65 14.18 40.42 13.79 40.95 13.09L40.95 14.08L43.37 14.08L43.37 3.70L40.95 3.70L40.95 7.53C40.42 6.83 39.62 6.44 38.63 6.44C36.54 6.44 35.15 7.97 35.15 10.28ZM37.58 10.33C37.59 9.17 38.26 8.37 39.27 8.37C40.28 8.37 40.95 9.17 40.95 10.33C40.95 11.49 40.28 12.31 39.27 12.31C38.26 12.31 37.59 11.49 37.58 10.33ZM45.15 11.30C45.15 13.06 46.21 14.18 47.85 14.18C48.94 14.18 49.78 13.73 50.30 12.84L50.30 14.08L52.72 14.08L52.72 6.54L50.30 6.54L50.30 10.26C50.30 11.28 49.76 12.04 48.83 12.05C48.06 12.05 47.57 11.51 47.57 10.61L47.57 6.54L45.15 6.54ZM54.73 14.08L57.15 14.08L57.15 3.70L54.73 3.70ZM58.52 10.33C58.52 12.63 60.06 14.17 62.52 14.17C63.91 14.17 65.04 13.68 65.81 12.84L64.54 11.59C64.04 12.10 63.39 12.36 62.73 12.36C61.84 12.36 61.19 11.86 60.96 10.96L66.26 10.96C66.43 8.20 65.11 6.45 62.45 6.45C60.12 6.45 58.52 7.99 58.52 10.33ZM60.91 9.66C61.07 8.75 61.64 8.13 62.48 8.13C63.35 8.13 63.94 8.74 63.94 9.66ZM66.44 6.54L69.58 13.92L69.40 14.29C69.20 14.70 68.89 14.90 68.46 14.90C68.11 14.90 67.82 14.77 67.47 14.49L66.46 16.14C67.13 16.66 67.82 16.91 68.66 16.91C70.06 16.91 71.01 16.24 71.57 14.87L74.83 6.54L72.42 6.54L70.78 11.55L68.94 6.54Z"></path></g><defs data-v-fde0c5aa=""><linearGradient data-v-fde0c5aa="" gradientTransform="rotate(25)" id="5449e281-2ef1-45bc-b44a-940214d83c89" x1="0%" y1="0%" x2="100%" y2="0%"><stop data-v-fde0c5aa="" offset="0%" stop-color="#0D7CE9" stop-opacity="1"></stop><stop data-v-fde0c5aa="" offset="100%" stop-color="#15CFF1" stop-opacity="1"></stop></linearGradient></defs><g data-v-fde0c5aa="" id="c15a4ed5-32b8-47d3-8fc9-22c108f1276c" stroke="none" fill="url(#5449e281-2ef1-45bc-b44a-940214d83c89)" transform="matrix(0.5362744782945356,0,0,0.5362744782945356,40,123.18627608527322)"><path d="M0 32v59.906C0 96.377 3.582 100 8 100h72c4.418 0 8-3.623 8-8.094V32H0zm22 62H6V78h16v16zm0-20H6V58h16v16zm0-20H6V38h16v16zm20 40H26V78h16v16zm0-20H26V58h16v16zm0-20H26V38h16v16zm20 40H46V78h16v16zm0-20H46V58h16v16zm0-20H46V38h16v16zm20 40H66V78h16v16zm0-20H66V58h16v16zm0-20H66V38h16v16zM80 12H67V3a3 3 0 0 0-6 0v9H27V3a3 3 0 0 0-6 0v9H8c-4.418 0-8 3.623-8 8.093V28h88v-7.907C88 15.623 84.418 12 80 12zM24 26a6 6 0 0 1-6-6 5.994 5.994 0 0 1 3-5.19V20a3 3 0 1 0 6 0v-5.191A5.993 5.993 0 0 1 30 20a6 6 0 0 1-6 6zm40 0a6 6 0 0 1-6-6 5.994 5.994 0 0 1 3-5.19V20a3 3 0 1 0 6 0v-5.191A5.993 5.993 0 0 1 70 20a6 6 0 0 1-6 6z"></path></g><defs data-v-fde0c5aa=""><!----></defs><g data-v-fde0c5aa="" id="c7ce9544-ef7a-472e-88f0-4f052b14810c" fill="#000000" transform="matrix(0.38887417243723493,0,0,0.38887417243723493,100.0988242848256,162.52949762263836)"><path d="M0.24 12.60C1.40 13.55 3.08 14.17 4.72 14.17C6.90 14.17 8.64 13.13 8.64 11.17C8.64 7.63 3.46 8.60 3.46 6.90C3.46 6.43 3.89 6.19 4.54 6.19C5.33 6.19 6.64 6.61 7.67 7.21L8.61 5.26C7.60 4.61 6.16 4.17 4.75 4.17C2.39 4.17 0.84 5.32 0.84 7.13C0.84 10.60 6.02 9.56 6.02 11.30C6.02 11.86 5.53 12.15 4.75 12.15C3.72 12.15 2.21 11.56 1.20 10.68ZM9.11 6.29L12.04 6.29L12.04 14.08L14.53 14.08L14.53 6.29L17.49 6.29L17.49 4.27L9.11 4.27ZM17.50 14.08L20.06 14.08L20.78 12.28L25.06 12.28L25.76 14.08L28.42 14.08L24.29 4.28L21.73 4.28ZM21.50 10.39L22.93 6.76L24.33 10.39ZM28.28 4.28L31.91 10.99L31.91 14.08L34.38 14.08L34.38 10.92L37.94 4.28L35.45 4.28L33.14 8.55L30.77 4.28ZM42.10 14.08L44.59 14.08L44.59 11.33L46.37 11.33C48.87 11.33 50.32 10.00 50.32 7.70C50.32 5.52 48.87 4.28 46.37 4.28L42.10 4.28ZM44.59 9.37L44.59 6.24L46.24 6.24C47.33 6.24 47.96 6.76 47.96 7.78C47.96 8.82 47.33 9.37 46.24 9.37ZM51.62 14.08L54.11 14.08L54.11 11.33L56.00 11.33L56.07 11.33L57.53 14.08L60.35 14.08L58.30 10.85C59.44 10.28 60.07 9.20 60.07 7.70C60.07 5.52 58.59 4.28 56.00 4.28L51.62 4.28ZM54.11 9.37L54.11 6.24L56.00 6.24C57.08 6.24 57.71 6.76 57.71 7.78C57.71 8.82 57.08 9.37 56.00 9.37ZM61.11 9.17C61.11 12.04 63.38 14.20 66.40 14.20C69.44 14.20 71.71 12.03 71.71 9.17C71.71 6.33 69.44 4.20 66.40 4.20C63.38 4.20 61.11 6.31 61.11 9.17ZM63.66 9.18C63.66 7.53 64.92 6.29 66.43 6.29C67.94 6.29 69.15 7.53 69.15 9.18C69.15 10.84 67.94 12.11 66.43 12.11C64.93 12.11 63.66 10.84 63.66 9.18ZM73.02 14.08L77.14 14.08C80.29 14.08 82.45 12.08 82.45 9.18C82.45 6.27 80.32 4.28 77.24 4.28L73.02 4.28ZM75.52 12.10L75.52 6.27L77.18 6.27C78.76 6.27 79.91 7.46 79.91 9.20C79.91 10.92 78.82 12.10 77.29 12.10ZM83.59 9.97C83.59 12.56 85.36 14.20 88.12 14.20C90.86 14.20 92.58 12.56 92.58 9.97L92.58 4.28L90.10 4.28L90.10 9.97C90.10 11.30 89.31 12.11 88.13 12.11C86.94 12.11 86.09 11.30 86.09 9.97L86.09 4.28L83.59 4.28ZM93.73 9.16C93.73 12.03 95.93 14.20 98.88 14.20C100.32 14.20 101.88 13.48 102.93 12.40L101.47 10.86C100.79 11.56 99.83 12.01 99.01 12.01C97.45 12.01 96.28 10.77 96.28 9.13C96.28 7.52 97.45 6.29 99.01 6.29C99.88 6.29 100.83 6.78 101.47 7.56L102.91 5.85C101.93 4.84 100.42 4.20 98.97 4.20C95.98 4.20 93.73 6.33 93.73 9.16ZM103.18 6.29L106.11 6.29L106.11 14.08L108.60 14.08L108.60 6.29L111.55 6.29L111.55 4.27L103.18 4.27ZM112.62 14.08L115.11 14.08L115.11 4.28L112.62 4.28ZM116.07 4.28L119.88 14.08L122.46 14.08L126.31 4.28L123.75 4.28L121.24 11.49L118.73 4.28ZM127.27 14.08L135.10 14.08L135.10 12.12L129.77 12.12L129.77 10.15L134.44 10.15L134.44 8.19L129.77 8.19L129.77 6.24L134.95 6.24L134.95 4.28L127.27 4.28ZM139.96 14.08L144.76 14.08C147.07 14.08 148.53 13.03 148.53 11.37C148.53 10.09 147.74 9.13 146.51 8.89C147.55 8.60 148.19 7.77 148.19 6.73C148.19 5.24 146.79 4.28 144.59 4.28L139.96 4.28ZM142.44 12.17L142.44 10.00L144.45 10.00C145.38 10.00 145.95 10.40 145.95 11.06C145.95 11.76 145.38 12.17 144.45 12.17ZM142.44 8.20L142.44 6.19L144.45 6.19C145.18 6.19 145.64 6.55 145.64 7.18C145.64 7.81 145.18 8.20 144.45 8.20ZM148.92 4.28L152.54 10.99L152.54 14.08L155.02 14.08L155.02 10.92L158.58 4.28L156.09 4.28L153.78 8.55L151.41 4.28ZM162.74 14.08L165.23 14.08L165.23 10.28L169.29 10.28L169.29 14.08L171.78 14.08L171.78 4.28L169.29 4.28L169.29 8.32L165.23 8.32L165.23 4.28L162.74 4.28ZM172.69 14.08L175.25 14.08L175.97 12.28L180.25 12.28L180.95 14.08L183.61 14.08L179.48 4.28L176.92 4.28ZM176.69 10.39L178.12 6.76L179.52 10.39ZM183.53 4.28L187.33 14.08L189.91 14.08L193.76 4.28L191.20 4.28L188.69 11.49L186.19 4.28ZM194.73 14.08L197.22 14.08L197.22 4.28L194.73 4.28ZM199.18 14.08L201.52 14.08L201.52 8.05L206.02 14.08L208.22 14.08L208.22 4.28L205.90 4.28L205.90 10.33L201.38 4.28L199.18 4.28ZM209.54 9.18C209.54 12.04 211.79 14.20 214.77 14.20C216.15 14.20 217.80 13.66 218.85 12.92L218.85 9.10L216.69 9.10L216.69 11.63C216.10 11.93 215.46 12.11 214.96 12.11C213.33 12.11 212.09 10.85 212.09 9.18C212.09 7.55 213.32 6.29 214.93 6.29C215.84 6.29 216.83 6.69 217.55 7.35L218.95 5.66C217.94 4.76 216.40 4.20 214.94 4.20C211.85 4.20 209.54 6.34 209.54 9.18ZM223.19 9.18C223.19 12.04 225.44 14.20 228.42 14.20C229.80 14.20 231.45 13.66 232.50 12.92L232.50 9.10L230.34 9.10L230.34 11.63C229.75 11.93 229.11 12.11 228.61 12.11C226.98 12.11 225.74 10.85 225.74 9.18C225.74 7.55 226.97 6.29 228.58 6.29C229.49 6.29 230.48 6.69 231.20 7.35L232.60 5.66C231.59 4.76 230.05 4.20 228.59 4.20C225.50 4.20 223.19 6.34 223.19 9.18ZM234.23 14.08L236.73 14.08L236.73 11.33L238.62 11.33L238.69 11.33L240.14 14.08L242.97 14.08L240.91 10.85C242.06 10.28 242.69 9.20 242.69 7.70C242.69 5.52 241.21 4.28 238.62 4.28L234.23 4.28ZM236.73 9.37L236.73 6.24L238.62 6.24C239.69 6.24 240.32 6.76 240.32 7.78C240.32 8.82 239.69 9.37 238.62 9.37ZM244.37 14.08L252.20 14.08L252.20 12.12L246.86 12.12L246.86 10.15L251.54 10.15L251.54 8.19L246.86 8.19L246.86 6.24L252.04 6.24L252.04 4.28L244.37 4.28ZM252.76 14.08L255.32 14.08L256.03 12.28L260.32 12.28L261.02 14.08L263.68 14.08L259.55 4.28L256.98 4.28ZM256.76 10.39L258.19 6.76L259.59 10.39ZM263.70 6.29L266.63 6.29L266.63 14.08L269.12 14.08L269.12 6.29L272.08 6.29L272.08 4.27L263.70 4.27ZM275.51 6.29L278.43 6.29L278.43 14.08L280.92 14.08L280.92 6.29L283.88 6.29L283.88 4.27L275.51 4.27ZM284.94 14.08L287.43 14.08L287.43 4.28L284.94 4.28ZM289.39 14.08L291.62 14.08L291.62 7.71L293.97 13.10L295.60 13.10L297.95 7.71L297.96 14.08L300.16 14.08L300.16 4.27L297.44 4.27L294.78 10.11L292.12 4.27L289.39 4.27ZM302.13 14.08L309.96 14.08L309.96 12.12L304.63 12.12L304.63 10.15L309.30 10.15L309.30 8.19L304.63 8.19L304.63 6.24L309.81 6.24L309.81 4.28L302.13 4.28ZM314.82 14.08L317.04 14.08L317.04 7.71L319.40 13.10L321.02 13.10L323.37 7.71L323.39 14.08L325.58 14.08L325.58 4.27L322.87 4.27L320.21 10.11L317.55 4.27L314.82 4.27ZM326.51 14.08L329.07 14.08L329.78 12.28L334.07 12.28L334.77 14.08L337.43 14.08L333.30 4.28L330.74 4.28ZM330.51 10.39L331.94 6.76L333.34 10.39ZM338.34 14.08L340.68 14.08L340.68 8.05L345.18 14.08L347.38 14.08L347.38 4.28L345.06 4.28L345.06 10.33L340.54 4.28L338.34 4.28ZM348.29 14.08L350.85 14.08L351.57 12.28L355.85 12.28L356.55 14.08L359.21 14.08L355.08 4.28L352.52 4.28ZM352.30 10.39L353.72 6.76L355.12 10.39ZM359.48 9.18C359.48 12.04 361.73 14.20 364.71 14.20C366.09 14.20 367.74 13.66 368.79 12.92L368.79 9.10L366.63 9.10L366.63 11.63C366.04 11.93 365.40 12.11 364.90 12.11C363.27 12.11 362.03 10.85 362.03 9.18C362.03 7.55 363.26 6.29 364.87 6.29C365.78 6.29 366.77 6.69 367.49 7.35L368.89 5.66C367.88 4.76 366.34 4.20 364.88 4.20C361.79 4.20 359.48 6.34 359.48 9.18ZM370.52 14.08L372.75 14.08L372.75 7.71L375.10 13.10L376.73 13.10L379.08 7.71L379.09 14.08L381.29 14.08L381.29 4.27L378.57 4.27L375.91 10.11L373.25 4.27L370.52 4.27ZM383.26 14.08L391.09 14.08L391.09 12.12L385.76 12.12L385.76 10.15L390.43 10.15L390.43 8.19L385.76 8.19L385.76 6.24L390.94 6.24L390.94 4.28L383.26 4.28ZM392.70 14.08L395.04 14.08L395.04 8.05L399.55 14.08L401.74 14.08L401.74 4.28L399.42 4.28L399.42 10.33L394.90 4.28L392.70 4.28ZM402.82 6.29L405.75 6.29L405.75 14.08L408.24 14.08L408.24 6.29L411.19 6.29L411.19 4.27L402.82 4.27Z"></path></g></svg>