<svg width="208" height="452" viewBox="0 0 208 452" fill="none" xmlns="http://www.w3.org/2000/svg">
<path d="M103.879 451.792C161.132 451.792 207.545 448.252 207.545 443.886C207.545 439.519 161.132 435.979 103.879 435.979C46.6253 435.979 0.21228 439.519 0.21228 443.886C0.21228 448.252 46.6253 451.792 103.879 451.792Z" fill="#E6E6E6"/>
<path d="M144.048 217.521L134.022 245.486C133.263 247.605 133.259 249.922 134.012 252.044C134.764 254.166 136.227 255.962 138.152 257.129V257.129C139.554 257.978 141.147 258.461 142.784 258.533C144.421 258.605 146.05 258.264 147.52 257.54C148.991 256.817 150.256 255.735 151.198 254.395C152.141 253.054 152.731 251.498 152.914 249.87L156.095 221.537L180.191 141.889L159.442 131.849L144.048 217.521Z" fill="#A0616A"/>
<path d="M135.681 428.689H150.406V285.456L116.94 284.787L135.681 428.689Z" fill="#A0616A"/>
<path d="M70.088 428.689H84.813V285.456L51.348 284.787L70.088 428.689Z" fill="#A0616A"/>
<path d="M152.749 300.516L114.598 296.5L106.566 254.333L91.8411 297.169L46.3278 292.484L65.0685 221.537C99.3256 198.259 131.862 198.768 162.788 221.537L152.749 300.516Z" fill="#2F2E41"/>
<path d="M88.0651 434.789C88.2922 436.607 88.0989 438.452 87.5 440.183C86.9011 441.914 85.9126 443.484 84.6108 444.772C83.309 446.06 81.7287 447.032 79.9917 447.613C78.2548 448.194 76.4077 448.368 74.5928 448.122L47.4664 444.443C45.0405 444.064 42.8638 442.739 41.414 440.757C39.9642 438.776 39.3596 436.3 39.733 433.873C40.0697 431.684 41.1788 429.689 42.8595 428.247C44.5402 426.805 46.6815 426.012 48.8959 426.012H53.3685L68.0835 412.605C68.2286 421.737 74.9539 419.709 86.0686 418.818L88.0651 434.789Z" fill="#2F2E41"/>
<path d="M153.658 434.789C153.885 436.607 153.692 438.452 153.093 440.183C152.494 441.914 151.505 443.484 150.203 444.772C148.902 446.06 147.321 447.032 145.584 447.613C143.847 448.194 142 448.368 140.185 448.122L113.059 444.443C110.633 444.064 108.456 442.739 107.007 440.757C105.557 438.776 104.952 436.3 105.326 433.873V433.873C105.662 431.684 106.771 429.689 108.452 428.247C110.133 426.805 112.274 426.012 114.489 426.012H118.961L133.676 412.605C133.821 421.737 140.547 419.709 151.661 418.818L153.658 434.789Z" fill="#2F2E41"/>
<path d="M101.379 56.8858C114.409 56.8858 124.972 46.3227 124.972 33.2925C124.972 20.2623 114.409 9.69922 101.379 9.69922C88.3486 9.69922 77.7855 20.2623 77.7855 33.2925C77.7855 46.3227 88.3486 56.8858 101.379 56.8858Z" fill="#A0616A"/>
<path d="M131.331 72.949L101.881 75.627V49.523L117.275 40.153L131.331 72.949Z" fill="#A0616A"/>
<path d="M166.135 231.577C136.508 209.882 100.933 212.086 61.722 228.899C79.4872 178.608 87.0545 131.737 73.1003 92.0865C73.1003 85.0809 75.4323 78.2746 79.7285 72.741C84.0248 67.2073 90.0408 63.2612 96.8279 61.525L101.881 60.2324L126.645 61.571L149.9 75.2031C154.642 77.9831 158.579 81.9501 161.323 86.7137C164.067 91.4772 165.523 96.8732 165.548 102.37L166.135 231.577Z" fill="#E6E6E6"/>
<path d="M51.6823 212.166L41.6573 240.131C40.8975 242.25 40.8936 244.567 41.6463 246.689C42.3989 248.811 43.8618 250.608 45.7873 251.774C47.1887 252.624 48.7814 253.107 50.4186 253.179C52.0558 253.25 53.6847 252.909 55.1552 252.186C56.6258 251.463 57.8906 250.381 58.8331 249.04C59.7756 247.7 60.3655 246.143 60.5484 244.515L63.7299 216.182L87.8252 136.534L67.0765 126.494L51.6823 212.166Z" fill="#A0616A"/>
<path d="M185.545 157.283H152.749V76.9652C158.421 80.1164 163.349 84.4507 167.198 89.6741C171.048 94.8975 173.729 100.888 175.059 107.239L185.545 157.283Z" fill="#E6E6E6"/>
<path d="M83.3909 20.5182C81.9493 21.1991 80.3609 21.5105 78.769 21.4244C77.177 21.3382 75.6316 20.8573 74.2719 20.0248C72.9417 19.146 71.9373 17.8542 71.4133 16.3485C70.8894 14.8427 70.875 13.2065 71.3724 11.6917C72.3672 9.13393 74.8844 7.53226 77.3269 6.28086C82.715 3.52226 88.489 1.59347 94.4534 0.559761C97.297 0.0677614 100.308 -0.202764 102.996 0.848336C104.326 1.36843 105.518 2.19219 106.838 2.73673C109.265 3.738 111.973 3.74239 114.542 4.28553C117.172 4.85988 119.648 5.99241 121.802 7.60648C123.956 9.22056 125.739 11.2785 127.029 13.6412C127.874 15.2487 128.523 16.9521 128.962 18.7147C130.199 23.5367 130.183 28.5949 128.915 33.4089C126.894 41.0349 121.753 48.0418 122.215 55.9174C118.414 53.7036 116.633 49.1964 113.458 46.1507C111.098 43.9008 108.045 42.5178 104.797 42.2277C103.91 42.2627 103.031 42.039 102.268 41.5838C101.714 41.0431 101.332 40.3515 101.168 39.5951L97.5918 28.3932C96.864 26.1135 95.9849 23.6366 93.9278 22.4137C92.659 21.7712 91.2587 21.4309 89.8366 21.4195C86.4348 21.1718 83.0184 21.2039 79.6218 21.5155" fill="#2F2E41"/>
<path d="M91.1718 142.558L53.0209 127.833L70.3466 81.1501C72.3641 75.7139 75.9072 70.9751 80.5508 67.5023C85.1945 64.0294 90.7414 61.97 96.5262 61.571V61.571L91.1718 142.558Z" fill="#E6E6E6"/>
</svg>
